<?xml version="1.0" standalone="no"?>
<!DOCTYPE svg PUBLIC "-//W3C//DTD SVG 20010904//EN"
 "http://www.w3.org/TR/2001/REC-SVG-20010904/DTD/svg10.dtd">
<svg version="1.0" xmlns="http://www.w3.org/2000/svg"
 width="654.000000pt" height="1400.000000pt" viewBox="0 0 654.000000 1400.000000"
 preserveAspectRatio="xMidYMid meet">

<g transform="translate(0.000000,1400.000000) scale(0.100000,-0.100000)"
fill="#000000" stroke="none">
<path d="M410 13207 c0 -8 -18 -20 -41 -27 -56 -19 -79 -51 -79 -112 0 -40 5
-53 26 -73 15 -14 35 -25 45 -25 31 0 49 -12 49 -31 0 -10 7 -19 15 -19 8 0
15 9 15 20 0 13 9 22 28 26 49 12 79 33 92 64 23 56 -7 140 -50 140 -25 0 -70
24 -70 38 0 6 -7 12 -15 12 -8 0 -15 -6 -15 -13z m0 -132 c0 -91 -3 -95 -49
-70 -73 37 -46 150 37 154 9 1 12 -22 12 -84z m96 61 c39 -33 39 -89 0 -123
-46 -40 -61 -28 -64 51 -2 38 -1 75 2 83 8 20 32 16 62 -11z"/>
<path d="M673 13125 c-40 -17 -53 -42 -53 -103 0 -38 5 -53 23 -70 66 -62 177
-15 177 75 0 45 -19 82 -51 99 -34 17 -55 17 -96 -1z m78 -26 c25 -18 29 -27
29 -69 0 -39 -4 -52 -22 -64 -52 -37 -108 -4 -108 63 0 32 6 44 31 65 37 31
34 31 70 5z"/>
<path d="M880 12990 c0 -127 2 -150 15 -150 12 0 15 13 15 55 l0 55 35 -17
c33 -16 37 -16 70 0 91 43 49 237 -44 200 -14 -6 -34 -14 -43 -18 -13 -5 -18
-2 -18 9 0 9 -7 16 -15 16 -13 0 -15 -23 -15 -150z m129 104 c28 -35 28 -97 1
-124 -26 -26 -48 -25 -77 2 -33 31 -31 83 4 120 33 35 46 35 72 2z"/>
<path d="M1147 13133 c-6 -10 -27 -155 -27 -189 0 -14 6 -24 14 -24 10 0 16
21 21 78 4 43 10 84 14 91 4 6 20 -25 38 -76 17 -50 36 -89 45 -91 10 -2 21
19 37 65 12 37 28 82 35 98 12 29 13 29 20 -35 11 -105 17 -130 32 -130 17 0
17 -2 4 97 -16 120 -18 125 -43 121 -18 -2 -28 -19 -51 -85 -17 -45 -31 -81
-33 -80 -1 2 -15 39 -31 83 -22 62 -32 80 -49 82 -12 2 -23 -1 -26 -5z"/>
<path d="M1430 13126 c0 -7 16 -58 35 -111 30 -83 34 -103 25 -128 -13 -40
-13 -47 4 -47 14 0 42 65 96 222 22 64 23 87 2 74 -5 -3 -22 -42 -38 -86 -15
-44 -30 -80 -33 -80 -4 0 -11 17 -18 38 -20 66 -52 132 -63 132 -5 0 -10 -6
-10 -14z"/>
<path d="M1706 13088 c-10 -75 -25 -117 -47 -128 -22 -12 -26 -40 -6 -40 29 0
60 50 76 122 15 67 19 73 43 76 l27 3 3 -98 c2 -79 6 -98 18 -98 12 0 15 18
15 105 l0 105 -61 3 -61 3 -7 -53z"/>
<path d="M1950 13131 c-14 -4 -26 -15 -28 -24 -3 -13 1 -15 15 -10 10 3 23 10
30 15 18 14 67 -13 71 -39 3 -18 -3 -23 -35 -28 -81 -12 -88 -17 -88 -60 0
-32 5 -42 27 -54 23 -13 33 -14 60 -3 21 8 36 8 42 2 6 -6 14 -10 18 -10 10 0
10 171 0 186 -19 29 -62 39 -112 25z m90 -128 c0 -47 -82 -75 -95 -33 -10 31
12 50 56 50 30 0 39 -4 39 -17z"/>
<path d="M2397 13120 c-60 -47 -57 -154 5 -186 26 -13 38 -14 70 -5 23 7 37
17 35 24 -3 7 -11 10 -18 8 -46 -13 -59 -11 -78 8 -29 29 -29 93 0 122 17 17
29 20 60 15 42 -7 52 6 20 24 -30 16 -66 12 -94 -10z"/>
<path d="M2608 13124 c-37 -19 -48 -43 -48 -101 1 -55 14 -77 56 -93 67 -26
144 26 144 95 0 91 -76 141 -152 99z m92 -32 c17 -14 23 -29 23 -62 0 -33 -6
-48 -23 -62 -49 -40 -110 -8 -110 59 0 69 61 105 110 65z"/>
<path d="M2820 13030 c0 -91 3 -110 15 -110 11 0 15 12 15 50 0 46 2 50 23 50
27 0 48 -21 67 -67 11 -31 40 -46 40 -23 0 20 -27 75 -44 89 -11 9 -13 17 -6
26 5 6 16 28 25 48 21 51 1 57 -25 8 -21 -41 -53 -67 -70 -56 -6 3 -10 26 -10
51 0 32 -4 44 -15 44 -12 0 -15 -19 -15 -110z"/>
<path d="M3040 12990 c0 -127 2 -150 15 -150 12 0 15 13 15 55 l0 55 35 -17
c33 -16 37 -16 70 0 27 13 36 25 45 59 28 101 -47 182 -119 132 -22 -16 -24
-16 -33 0 -22 39 -28 9 -28 -134z m132 103 c26 -23 25 -96 -2 -123 -42 -42
-100 -9 -100 57 0 66 59 105 102 66z"/>
<path d="M3320 13131 c-14 -4 -27 -15 -29 -26 -3 -18 -2 -18 23 -2 33 22 59
22 79 -1 34 -38 16 -62 -44 -62 -49 0 -69 -16 -69 -55 0 -36 28 -65 62 -65 26
0 22 19 -7 30 -51 19 -24 70 37 70 31 0 38 -3 38 -20 0 -11 -9 -28 -19 -37
-24 -20 -19 -33 9 -26 11 3 20 0 20 -6 0 -6 5 -11 10 -11 12 0 14 169 2 186
-19 29 -62 39 -112 25z"/>
<path d="M3520 13030 l0 -110 140 0 140 0 0 -40 c0 -29 4 -40 15 -40 11 0 15
12 15 51 0 42 -3 52 -20 56 -18 5 -20 14 -20 99 0 77 -3 94 -15 94 -12 0 -15
-17 -15 -95 l0 -95 -45 0 -45 0 0 95 c0 78 -3 95 -15 95 -12 0 -15 -17 -15
-95 l0 -95 -45 0 -45 0 0 95 c0 78 -3 95 -15 95 -12 0 -15 -19 -15 -110z"/>
<path d="M3924 13130 c-34 -14 -54 -50 -54 -100 0 -52 22 -90 51 -90 20 0 20
0 0 26 -37 47 -29 54 54 54 l75 0 0 33 c-1 35 -20 67 -40 67 -8 0 -10 -6 -5
-17 19 -46 12 -58 -35 -61 -25 -1 -52 2 -60 7 -13 9 -12 14 6 38 12 16 33 29
48 31 14 2 24 8 21 13 -7 11 -33 11 -61 -1z"/>
<path d="M4120 13030 c0 -91 3 -110 15 -110 11 0 15 12 15 50 l0 51 58 -3 57
-3 3 -47 c2 -34 7 -48 18 -48 12 0 14 18 12 107 -2 71 -7 108 -15 110 -8 3
-13 -12 -15 -44 l-3 -48 -55 0 -55 0 -3 48 c-2 33 -7 47 -18 47 -11 0 -14 -21
-14 -110z"/>
<path d="M4380 13030 c0 -91 3 -110 15 -110 11 0 15 12 15 50 l0 51 58 -3 57
-3 -3 -35 c-3 -39 10 -66 27 -56 15 9 15 202 0 211 -15 10 -19 3 -27 -46 l-8
-44 -49 0 -50 0 -3 48 c-2 33 -7 47 -18 47 -11 0 -14 -21 -14 -110z"/>
<path d="M4678 13124 c-37 -19 -48 -43 -48 -102 0 -57 27 -89 81 -98 45 -7
100 29 113 74 15 52 -7 110 -49 128 -43 17 -63 17 -97 -2z m87 -28 c57 -46 29
-146 -41 -146 -63 0 -89 98 -38 145 33 31 41 31 79 1z"/>
<path d="M4894 13127 c-10 -27 1 -200 13 -204 9 -3 13 22 15 94 l3 98 30 3
c54 6 52 22 -3 22 -35 0 -54 -5 -58 -13z"/>
<path d="M5130 13130 c0 -5 7 -10 15 -10 8 0 15 5 15 10 0 6 -7 10 -15 10 -8
0 -15 -4 -15 -10z"/>
<path d="M5093 13119 c-30 -11 -43 -40 -43 -97 0 -52 20 -82 54 -82 16 0 15 3
-3 26 -28 36 -28 97 0 125 25 25 21 39 -8 28z"/>
<path d="M5180 13114 c0 -4 8 -12 17 -19 12 -9 17 -27 17 -64 0 -51 8 -66 20
-35 16 42 -9 124 -39 124 -8 0 -15 -3 -15 -6z"/>
<path d="M4005 12950 c-3 -5 1 -10 9 -10 9 0 16 5 16 10 0 6 -4 10 -9 10 -6 0
-13 -4 -16 -10z"/>
<path d="M278 12545 c-3 -3 12 -53 34 -112 33 -90 37 -110 29 -135 -11 -32 -6
-52 10 -42 12 7 32 55 75 176 37 107 40 122 22 116 -7 -3 -27 -43 -45 -89
l-31 -84 -17 38 c-9 22 -24 59 -33 85 -16 43 -31 59 -44 47z"/>
<path d="M536 12542 c-7 -12 -26 -136 -26 -174 0 -18 5 -28 14 -28 10 0 16 19
21 68 11 113 17 115 50 18 39 -112 53 -113 91 -8 15 42 30 81 34 85 4 5 11
-22 14 -60 9 -87 14 -103 32 -103 12 0 13 10 8 48 -3 26 -9 72 -12 102 -6 47
-10 55 -30 58 -18 3 -26 -5 -42 -42 -10 -25 -24 -64 -30 -87 -6 -22 -14 -39
-17 -35 -3 3 -18 40 -32 83 -21 60 -32 79 -48 81 -12 2 -24 -1 -27 -6z"/>
<path d="M840 12445 c0 -87 3 -105 15 -105 11 0 15 12 15 45 l0 45 54 0 53 0
6 -41 c6 -46 13 -57 28 -42 15 15 7 195 -8 201 -8 2 -13 -5 -13 -20 0 -60 -9
-69 -64 -66 l-51 3 -3 43 c-2 28 -8 42 -18 42 -11 0 -14 -20 -14 -105z"/>
<path d="M1143 12540 c-57 -24 -76 -129 -31 -177 30 -32 118 -33 147 -1 38 40
40 113 4 157 -20 25 -85 36 -120 21z m89 -37 c26 -23 25 -96 -2 -123 -44 -44
-110 -10 -110 57 0 67 67 107 112 66z"/>
<path d="M1340 12536 c0 -7 11 -30 25 -51 23 -34 24 -39 11 -54 -8 -9 -22 -33
-31 -54 -14 -35 -14 -37 3 -37 11 0 25 16 37 43 16 32 26 43 48 45 26 3 27 2
27 -42 0 -34 4 -46 15 -46 11 0 15 12 15 46 0 44 1 45 27 42 21 -2 34 -14 51
-45 13 -24 28 -43 33 -43 17 0 9 37 -15 73 -13 19 -20 39 -16 43 5 5 16 26 25
47 13 31 13 37 1 37 -8 0 -23 -17 -33 -37 -14 -27 -27 -39 -46 -41 -26 -3 -27
-1 -27 42 0 34 -4 46 -15 46 -11 0 -15 -12 -15 -45 0 -36 -3 -45 -17 -45 -28
0 -41 13 -58 53 -15 36 -45 51 -45 23z"/>
<path d="M1723 12540 c-56 -23 -75 -130 -32 -176 21 -22 31 -24 84 -22 48 2
60 7 63 21 3 15 0 16 -23 7 -40 -15 -73 -12 -95 10 -39 39 -27 50 55 50 l75 0
0 33 c-1 65 -62 103 -127 77z m87 -39 c18 -36 12 -41 -50 -41 -33 0 -60 3 -60
8 0 4 7 18 16 30 20 29 79 31 94 3z"/>
<path d="M1920 12445 c0 -87 3 -105 15 -105 11 0 15 12 15 44 0 43 0 43 41 49
57 7 66 2 72 -44 6 -46 11 -54 26 -44 12 7 15 144 5 183 -9 32 -24 27 -24 -7
0 -54 -8 -61 -66 -61 l-54 0 0 45 c0 33 -4 45 -15 45 -12 0 -15 -18 -15 -105z"/>
<path d="M2180 12446 c0 -132 8 -135 87 -29 l58 77 3 -77 c2 -59 6 -77 17 -77
12 0 15 20 15 105 0 80 -3 105 -13 105 -7 0 -40 -36 -73 -81 l-59 -81 -5 78
c-3 49 -10 79 -17 82 -10 3 -13 -22 -13 -102z"/>
<path d="M2480 12543 c-49 -18 -65 -67 -31 -97 19 -17 19 -18 -5 -53 -28 -41
-30 -53 -10 -53 8 0 25 18 37 40 19 34 28 40 56 40 32 0 33 -1 33 -40 0 -29 4
-40 15 -40 12 0 15 18 15 99 l0 99 -31 6 c-36 7 -58 7 -79 -1z m80 -58 c0 -29
-4 -36 -27 -41 -28 -7 -50 2 -67 28 -16 26 10 48 55 48 38 0 39 -1 39 -35z"/>
<path d="M3200 11500 c-69 -12 -176 -56 -265 -107 -143 -82 -435 -283 -435
-298 0 -38 39 -19 232 108 354 235 468 278 641 242 136 -28 276 -96 548 -266
70 -44 131 -79 138 -79 17 0 13 35 -6 52 -33 29 -261 167 -375 227 -193 102
-357 144 -478 121z"/>
<path d="M4925 11431 c-83 -24 -158 -64 -318 -170 -129 -86 -157 -114 -123
-127 7 -3 76 36 152 86 285 189 367 209 522 131 59 -30 195 -131 314 -232 37
-32 76 -63 88 -69 17 -9 20 -8 20 9 0 24 -38 64 -155 163 -160 134 -282 208
-345 208 -16 0 -32 5 -35 10 -9 14 -50 11 -120 -9z"/>
<path d="M346 11011 c-13 -20 7 -39 47 -45 23 -3 58 -8 77 -11 l35 -7 -8 -311
c-4 -172 -10 -317 -12 -323 -2 -7 -38 -22 -79 -34 -59 -18 -76 -27 -76 -41 0
-24 37 -25 100 -3 25 9 56 16 70 16 14 0 32 6 40 13 8 6 195 70 415 140 220
70 405 130 410 134 6 3 15 6 21 7 6 1 69 20 140 43 115 37 154 51 229 82 11 4
39 11 61 14 39 6 84 35 84 54 0 12 -26 21 -60 21 -16 0 -32 5 -35 10 -3 6 -24
10 -45 10 -22 0 -65 7 -97 15 -31 8 -76 15 -98 15 -23 0 -45 4 -50 9 -13 12
-153 23 -159 13 -10 -17 35 -42 75 -42 22 0 49 -5 59 -10 11 -6 54 -13 97 -16
43 -4 83 -10 88 -14 6 -5 32 -11 60 -16 l50 -7 -40 -14 c-22 -7 -49 -17 -60
-21 -11 -5 -58 -21 -105 -35 -98 -30 -209 -66 -660 -211 -179 -58 -338 -108
-354 -112 l-29 -7 6 204 c4 112 7 251 7 308 l0 103 33 -6 c17 -4 55 -11 82
-15 28 -5 75 -14 105 -20 30 -6 71 -13 90 -15 19 -3 71 -12 115 -21 95 -19
206 -35 293 -42 51 -4 62 -2 62 11 0 10 -14 17 -47 21 -27 4 -57 10 -68 15
-19 8 -156 34 -235 44 -19 3 -84 14 -145 25 -60 11 -125 21 -143 21 -18 0 -42
5 -52 10 -11 6 -54 13 -97 16 -43 4 -82 10 -88 14 -17 13 -103 22 -109 11z"/>
<path d="M2504 10905 c-10 -26 5 -33 104 -50 53 -10 98 -19 99 -20 2 -1 42
-618 43 -651 0 -1 -57 -21 -126 -45 -123 -43 -148 -59 -126 -81 8 -8 71 9 224
62 308 105 580 199 603 209 11 5 106 37 210 72 224 74 274 94 298 120 17 18
17 19 -10 19 -15 0 -93 -22 -173 -49 -229 -77 -383 -131 -405 -140 -48 -20
-80 -31 -255 -89 -101 -33 -186 -59 -188 -57 -3 3 -40 545 -42 611 0 11 67 4
158 -16 23 -6 56 -10 73 -10 17 0 38 -4 48 -10 10 -5 49 -14 87 -19 155 -23
201 -31 234 -41 19 -5 50 -10 68 -10 18 0 42 -5 52 -10 11 -6 47 -13 82 -16
35 -3 72 -10 83 -14 11 -5 43 -11 70 -14 51 -5 106 -15 209 -38 l59 -13 -57
-18 c-43 -14 -56 -23 -56 -38 0 -20 34 -27 45 -9 3 6 21 10 38 10 18 0 45 7
61 15 15 8 33 15 40 15 6 0 17 9 23 19 10 16 9 21 -10 33 -12 8 -193 44 -402
81 -209 37 -400 71 -425 76 -25 4 -65 9 -90 10 -25 0 -61 8 -80 16 -40 16
-191 45 -238 45 -18 0 -40 4 -50 9 -14 8 -239 51 -265 51 -4 0 -10 -7 -13 -15z"/>
<path d="M4497 10874 c-22 -23 23 -49 103 -59 30 -3 69 -11 86 -16 l31 -10 6
-136 c10 -195 9 -253 -4 -253 -6 0 -25 -6 -42 -14 -18 -7 -60 -22 -94 -31 -48
-14 -63 -23 -63 -37 0 -13 8 -18 29 -18 17 0 33 5 36 10 3 6 16 10 29 10 12 0
27 5 33 11 6 6 21 12 34 13 32 4 192 56 204 67 5 5 18 9 30 9 11 0 33 7 49 15
15 8 34 15 41 15 7 0 18 7 25 15 7 9 29 15 51 15 22 0 39 5 39 10 0 6 8 10 18
10 10 0 22 3 26 8 4 4 12 8 17 8 5 1 11 3 14 4 9 4 24 7 44 9 21 1 36 30 23
43 -9 9 -192 -50 -203 -65 -4 -5 -19 -10 -35 -12 -16 -1 -42 -8 -59 -14 -16
-6 -64 -22 -105 -34 l-75 -24 -6 101 c-4 56 -7 136 -8 179 l-1 79 43 -9 c23
-4 65 -7 94 -6 29 1 55 -2 58 -7 9 -15 35 -12 35 4 0 14 -22 28 -50 31 -8 1
-22 4 -30 8 -8 3 -33 8 -55 11 -22 2 -83 14 -136 25 -53 11 -111 22 -130 25
-19 2 -48 7 -64 11 -17 4 -33 3 -38 -1z"/>
<path d="M5050 10773 c0 -16 23 -33 45 -33 11 0 29 -7 39 -15 11 -8 33 -15 49
-15 15 0 36 -4 46 -9 10 -6 41 -11 70 -12 29 -2 54 -6 57 -11 3 -4 27 -10 55
-14 57 -8 54 -21 -9 -40 -37 -12 -36 -12 29 -13 69 -1 129 19 129 44 0 23 -47
44 -117 51 -37 4 -72 10 -78 14 -5 4 -28 10 -50 13 -47 6 -198 33 -237 43 -16
3 -28 2 -28 -3z"/>
<path d="M1801 10468 c-6 -18 -12 -87 -13 -153 -3 -114 -2 -120 17 -120 18 0
20 8 23 78 3 76 14 98 28 55 3 -13 15 -41 24 -63 10 -22 26 -62 36 -88 10 -27
23 -51 30 -54 23 -9 192 121 200 154 5 19 -12 56 -74 166 -10 17 -25 27 -39
27 -13 0 -23 -2 -23 -5 0 -9 34 -76 64 -128 16 -26 27 -49 25 -50 -2 -2 -29
-24 -61 -50 -31 -26 -60 -47 -66 -47 -5 0 -30 55 -57 123 -62 160 -75 187 -90
187 -8 0 -18 -15 -24 -32z"/>
<path d="M4927 9963 c-4 -3 -7 -42 -7 -86 l0 -80 -94 7 c-98 7 -120 0 -96 -29
8 -9 31 -15 59 -15 25 0 63 -3 84 -6 l37 -7 0 -77 c0 -57 4 -79 14 -83 25 -10
36 16 36 90 l0 72 113 3 c92 2 112 6 112 18 0 12 -23 17 -107 24 l-108 9 0 68
c0 37 -3 74 -6 83 -6 16 -26 21 -37 9z"/>
<path d="M845 9920 c-7 -11 14 -470 21 -482 7 -11 32 -10 39 1 6 10 -12 432
-20 469 -5 22 -29 30 -40 12z"/>
<path d="M2975 9811 c-9 -15 14 -414 25 -425 5 -5 16 -6 25 -2 14 5 15 22 9
138 -12 251 -17 292 -36 296 -9 2 -19 -2 -23 -7z"/>
<path d="M4917 9262 c-270 -13 -307 -17 -305 -31 3 -14 27 -16 166 -19 l162
-2 0 -83 c0 -45 -3 -167 -7 -271 l-6 -189 -21 25 c-12 13 -73 88 -136 166 -63
78 -118 142 -122 142 -4 0 -8 5 -8 10 0 6 -28 44 -62 86 -43 51 -63 83 -63
102 0 23 -4 27 -30 27 -27 0 -30 -3 -29 -32 1 -20 12 -43 30 -61 16 -17 34
-36 39 -44 57 -75 80 -105 89 -113 6 -6 27 -30 46 -55 41 -53 30 -39 166 -208
83 -104 112 -132 128 -130 19 3 21 10 24 89 l3 86 194 163 c107 90 195 167
195 171 0 5 5 9 11 9 7 0 40 25 75 56 66 57 88 99 63 115 -19 12 -236 9 -602
-9z m553 -26 c0 -6 -475 -406 -483 -406 -2 0 -2 84 1 188 4 158 7 189 21 197
9 6 106 12 216 15 110 3 210 7 223 8 12 1 22 0 22 -2z"/>
<path d="M285 9114 c-9 -9 -15 -20 -13 -25 2 -5 154 -190 337 -410 297 -354
338 -400 360 -397 25 3 26 6 29 79 l3 75 121 110 c407 365 584 528 591 541 5
8 4 20 -3 29 -11 12 -113 14 -711 14 -629 0 -699 -2 -714 -16z m635 -61 c1
-16 7 -176 14 -358 8 -181 13 -331 11 -333 -2 -2 -139 159 -304 357 l-301 361
290 0 290 0 0 -27z m705 17 c-3 -6 -147 -137 -318 -291 l-312 -281 -6 123 c-4
68 -9 199 -13 292 l-7 167 331 0 c219 0 329 -3 325 -10z"/>
<path d="M3005 9068 c-297 -4 -546 -10 -553 -13 -8 -3 -12 -12 -10 -20 2 -9
183 -216 403 -461 308 -343 404 -444 420 -442 19 3 20 11 23 117 l3 114 312
319 c172 176 315 328 319 338 4 10 1 25 -5 34 -16 21 -226 24 -912 14z m832
-75 c-19 -21 -152 -157 -296 -303 l-261 -265 0 131 c0 72 -3 206 -7 297 l-6
166 139 4 c76 1 213 4 303 5 l163 2 -35 -37z m-613 -200 c3 -126 8 -309 11
-408 l6 -180 -34 40 c-19 22 -181 202 -359 400 l-324 360 55 6 c31 3 187 6
347 7 l292 2 6 -227z"/>
<path d="M2104 8975 c-4 -9 12 -44 37 -81 l43 -66 -29 -85 c-17 -47 -33 -87
-36 -89 -4 -2 -48 65 -98 150 -86 146 -114 178 -141 161 -6 -4 -10 -68 -10
-161 0 -133 2 -156 16 -161 27 -10 34 17 34 127 l0 105 86 -143 c83 -139 87
-143 117 -140 29 3 32 8 69 108 22 58 39 114 40 126 1 26 -90 164 -109 164 -7
0 -16 -7 -19 -15z"/>
<path d="M5584 8316 c-11 -12 -41 -52 -67 -91 -100 -152 -211 -260 -327 -318
-59 -29 -73 -32 -161 -32 -94 0 -98 1 -183 44 -121 61 -242 180 -355 349 -28
42 -48 62 -59 60 -9 -2 -17 -11 -17 -20 0 -28 124 -197 205 -279 237 -242 471
-274 705 -96 128 96 313 348 288 391 -6 10 -13 9 -29 -8z"/>
<path d="M894 7945 c-4 -9 -3 -77 2 -153 8 -116 12 -137 26 -140 25 -5 31 45
21 184 -7 101 -11 119 -26 122 -9 2 -20 -4 -23 -13z"/>
<path d="M1056 7933 c-7 -16 12 -261 21 -275 9 -16 31 -7 36 13 6 22 -9 242
-18 267 -6 18 -32 15 -39 -5z"/>
<path d="M5604 7863 c4 -38 9 -80 12 -94 4 -21 -3 -32 -42 -62 -26 -20 -50
-37 -53 -37 -3 0 -35 45 -70 100 -74 118 -92 125 -103 40 -8 -67 -6 -196 4
-205 4 -4 14 -5 23 -2 12 5 15 24 15 89 l0 83 56 -87 c31 -49 60 -88 65 -88 5
0 38 23 73 51 73 58 76 69 65 180 -10 88 -14 99 -35 99 -14 0 -15 -9 -10 -67z
m33 -105 c-3 -8 -6 -5 -6 6 -1 11 2 17 5 13 3 -3 4 -12 1 -19z"/>
<path d="M3874 7808 c-27 -29 -58 -64 -69 -78 -11 -14 -46 -47 -77 -73 -60
-51 -75 -76 -60 -103 13 -23 282 245 282 281 0 38 -22 30 -76 -27z"/>
<path d="M2543 7834 c-8 -21 -6 -22 192 -160 328 -229 444 -286 591 -288 44
-1 92 4 105 10 95 42 159 78 159 90 0 8 8 14 18 14 25 0 43 32 26 47 -10 10
-13 8 -16 -10 -2 -15 -9 -21 -22 -19 -10 2 -57 -16 -103 -40 -80 -40 -91 -43
-167 -43 -133 1 -240 54 -578 291 -97 68 -181 124 -187 124 -7 0 -14 -7 -18
-16z"/>
<path d="M4086 7625 c-3 -9 11 -49 31 -89 34 -69 35 -75 22 -105 -8 -17 -17
-31 -22 -31 -4 0 -16 -15 -27 -32 -18 -29 -20 -30 -20 -10 0 12 -4 22 -9 22
-5 0 -14 14 -21 30 -7 17 -16 30 -21 30 -5 0 -9 4 -9 10 0 12 -85 143 -102
158 -8 6 -24 9 -36 6 -23 -7 -27 -22 -37 -177 -5 -70 -3 -90 9 -102 8 -8 17
-12 20 -7 2 4 10 55 16 112 6 58 12 106 14 107 1 1 31 -45 66 -102 36 -57 75
-109 87 -116 20 -11 28 -7 83 41 33 29 65 60 70 70 7 13 -2 41 -35 109 -42 87
-66 110 -79 76z"/>
<path d="M5064 7496 c-5 -14 23 -234 33 -248 9 -15 31 -8 36 12 5 18 -18 210
-28 238 -6 16 -34 15 -41 -2z"/>
<path d="M4895 7488 c-3 -8 -4 -72 -3 -144 3 -121 4 -129 23 -129 19 0 20 7
20 140 0 125 -2 140 -18 143 -9 2 -19 -3 -22 -10z"/>
<path d="M844 7310 c-79 -25 -205 -103 -349 -215 -86 -67 -115 -94 -113 -109
2 -11 8 -21 13 -22 6 -2 62 37 125 87 283 222 412 266 598 203 91 -30 165 -70
333 -180 123 -80 154 -89 142 -45 -6 22 -222 163 -343 223 -160 80 -281 97
-406 58z"/>
<path d="M3457 7241 c-3 -22 -1 -100 4 -173 4 -73 8 -148 9 -166 0 -29 3 -33
23 -30 22 3 22 5 18 124 -6 209 -14 278 -32 282 -12 2 -18 -7 -22 -37z"/>
<path d="M3265 7260 c-10 -17 15 -403 27 -418 9 -11 14 -11 24 0 10 10 11 54
3 208 -5 107 -11 201 -14 208 -5 14 -31 16 -40 2z"/>
<path d="M4580 7037 c0 -9 6 -20 14 -24 10 -6 15 -57 21 -220 6 -192 5 -213
-9 -213 -11 0 -16 -9 -16 -28 0 -26 2 -28 33 -24 17 3 47 16 65 30 17 13 32
22 32 19 0 -6 481 185 525 209 60 33 95 59 95 72 0 15 -20 11 -85 -19 -22 -9
-150 -61 -285 -114 -135 -53 -249 -101 -255 -106 -5 -5 -16 -9 -25 -9 -15 0
-18 19 -23 137 -4 75 -7 162 -7 195 l0 58 55 0 c30 0 55 -4 55 -10 0 -12 37
-14 44 -2 2 4 2 13 -2 18 -15 24 -57 36 -143 41 -77 5 -89 4 -89 -10z"/>
<path d="M4837 7014 c-11 -11 -8 -24 6 -24 6 0 25 -7 41 -15 15 -8 32 -13 37
-10 12 8 142 -14 154 -26 17 -17 55 -11 55 10 0 25 -35 37 -140 51 -47 6 -99
14 -115 17 -17 2 -33 1 -38 -3z"/>
<path d="M5180 6951 c0 -24 11 -32 28 -22 16 10 5 41 -14 41 -8 0 -14 -9 -14
-19z"/>
<path d="M5264 6937 c-9 -25 4 -37 41 -37 46 0 65 -9 65 -31 0 -14 7 -19 28
-19 33 0 52 16 52 45 0 24 -49 47 -96 44 -16 -1 -41 2 -56 6 -21 5 -29 3 -34
-8z"/>
<path d="M274 6806 c-9 -24 4 -36 40 -36 69 0 67 11 64 -345 l-3 -319 -60 -22
c-48 -17 -59 -25 -57 -40 2 -10 5 -21 7 -22 6 -7 883 300 1007 351 31 13 45
37 27 47 -14 9 -49 1 -49 -11 0 -5 -11 -9 -25 -9 -14 0 -33 -4 -43 -9 -18 -10
-737 -261 -746 -261 -3 0 -6 137 -6 305 l0 305 49 0 c28 0 53 -4 56 -10 3 -5
30 -10 60 -10 30 0 57 -5 60 -10 5 -8 11 -7 21 1 11 9 18 9 29 -1 18 -15 72
-28 175 -41 41 -5 84 -14 95 -19 26 -11 81 -20 174 -26 41 -3 84 -10 95 -16
12 -7 37 -13 56 -14 19 -1 53 -7 75 -13 37 -11 73 -19 170 -38 l40 -8 -50 -19
c-27 -11 -52 -23 -55 -27 -3 -4 -18 -10 -34 -13 -31 -6 -56 -23 -56 -38 0 -16
58 -1 114 28 27 14 58 23 69 20 11 -2 37 2 57 10 44 18 61 53 29 61 -10 3 -19
9 -19 12 0 4 -53 15 -117 25 -65 10 -131 21 -148 26 -36 10 -143 30 -153 28
-4 -1 -14 1 -22 5 -8 3 -31 8 -50 10 -19 3 -82 14 -139 26 -57 11 -115 18
-128 15 -14 -4 -33 0 -48 10 -16 10 -48 16 -92 17 -37 0 -77 4 -88 8 -11 5
-25 5 -31 0 -6 -5 -30 2 -59 17 -30 16 -71 28 -109 31 -34 3 -65 9 -71 13 -5
4 -31 11 -58 14 -37 6 -48 4 -53 -8z"/>
<path d="M5624 6717 c-2 -7 4 -38 15 -69 l20 -57 -49 -35 -49 -35 -26 78 c-14
43 -34 86 -44 95 -17 16 -19 13 -40 -40 -25 -66 -29 -144 -6 -144 9 0 19 17
26 47 l12 46 21 -59 c20 -55 23 -59 54 -61 25 -1 45 9 87 43 30 25 55 53 55
63 0 22 -30 112 -43 129 -12 16 -26 15 -33 -1z"/>
<path d="M2677 6643 c-22 -22 18 -42 103 -52 l55 -6 9 -209 c7 -173 6 -210 -5
-217 -8 -5 -49 -21 -93 -36 -78 -27 -99 -44 -78 -65 10 -10 156 32 237 69 17
7 129 49 250 92 206 74 220 80 223 105 2 14 1 26 -1 26 -4 0 -421 -150 -458
-165 -15 -6 -18 14 -24 190 -4 108 -6 197 -4 199 2 2 52 -2 111 -9 59 -7 119
-10 133 -8 14 3 31 1 38 -5 6 -6 56 -12 110 -14 78 -2 100 0 107 12 8 13 14
11 35 -12 32 -35 55 -36 55 -3 0 30 32 24 -425 75 -407 45 -370 42 -378 33z"/>
<path d="M3717 6523 c-6 -12 -2 -81 5 -88 8 -8 108 23 132 41 27 19 13 40 -31
47 -52 9 -101 9 -106 0z"/>
<path d="M1370 6439 c0 -5 -3 -8 -8 -5 -4 2 -16 -2 -27 -10 -18 -13 -17 -14
13 -14 25 0 32 4 32 20 0 11 -2 20 -5 20 -3 0 -5 -5 -5 -11z"/>
<path d="M3427 6373 c-11 -3 -16 -10 -13 -20 3 -8 6 -19 6 -25 0 -15 52 1 72
22 15 16 15 19 2 24 -17 7 -39 6 -67 -1z"/>
<path d="M4107 6337 c-3 -8 3 -59 14 -113 10 -55 19 -100 19 -101 0 -1 -13 -4
-30 -8 -23 -5 -30 -12 -30 -29 0 -22 1 -23 48 -11 47 12 47 13 49 56 4 67 -28
213 -48 217 -9 2 -19 -3 -22 -11z"/>
<path d="M3845 6310 c-8 -13 24 -272 35 -284 5 -5 16 -6 25 -2 14 5 16 15 12
49 -13 93 -19 162 -15 157 3 -3 31 -47 63 -98 46 -76 61 -93 78 -90 26 4 35
38 14 49 -8 5 -44 58 -81 119 -61 99 -71 110 -96 110 -16 0 -32 -5 -35 -10z"/>
<path d="M4897 6294 c-4 -4 -7 -33 -7 -65 0 -83 -4 -88 -55 -83 -46 4 -59 -4
-49 -30 7 -19 69 -22 81 -3 5 7 10 -15 13 -53 4 -57 8 -65 25 -65 17 0 21 8
25 60 l5 60 80 5 c72 4 80 7 80 25 0 19 -6 20 -77 17 l-77 -3 -3 68 c-2 52 -7
68 -18 71 -9 1 -19 0 -23 -4z"/>
<path d="M3337 5913 c-3 -4 -8 -77 -12 -160 -7 -138 -6 -153 9 -159 10 -4 21
-3 26 2 5 5 10 79 12 164 3 137 1 155 -14 158 -9 2 -18 -1 -21 -5z"/>
<path d="M846 5823 c-20 -268 -19 -252 -1 -259 9 -4 20 -3 25 2 10 10 28 273
22 317 -3 18 -10 27 -22 27 -15 0 -19 -13 -24 -87z"/>
<path d="M4431 5816 c-9 -11 -7 -67 9 -243 12 -125 25 -232 30 -237 15 -15 40
2 39 26 0 13 -8 106 -18 208 -10 102 -17 186 -17 187 1 1 38 -22 81 -52 44
-30 91 -60 105 -67 13 -7 35 -23 49 -35 13 -13 30 -23 37 -23 7 0 14 -4 16 -9
4 -12 443 -311 456 -311 6 0 15 7 19 15 5 8 47 47 93 86 47 39 102 89 123 112
40 44 45 70 30 173 l-7 49 -15 -86 -16 -87 -119 -100 -120 -100 -40 27 c-23
15 -170 116 -328 224 -158 109 -292 197 -298 197 -6 0 -25 14 -42 30 -33 33
-50 37 -67 16z"/>
<path d="M3664 5357 c-3 -8 22 -106 56 -217 34 -111 58 -206 53 -211 -4 -4
-84 -60 -177 -123 l-169 -115 -47 42 c-25 23 -178 166 -338 317 -161 151 -299
276 -306 278 -8 2 -17 -2 -21 -7 -9 -15 24 -564 35 -575 16 -16 40 3 39 31 0
15 -6 125 -13 243 -7 118 -12 216 -11 217 1 2 145 -132 321 -297 175 -165 327
-300 337 -300 10 0 105 59 212 132 168 114 195 136 195 158 0 14 -28 117 -63
230 -47 156 -66 206 -80 208 -9 2 -20 -3 -23 -11z"/>
<path d="M1305 5319 c-185 -10 -196 -12 -171 -37 14 -14 34 -17 134 -14 64 1
144 5 177 8 43 4 57 3 50 -5 -6 -6 -150 -125 -320 -264 l-310 -254 -6 66 c-4
36 -7 148 -8 249 l-1 182 38 0 c62 0 152 21 152 36 0 17 -17 27 -25 14 -3 -5
-18 -8 -33 -6 -73 12 -632 -10 -632 -25 0 -5 -36 -9 -81 -9 l-81 0 6 -25 c6
-23 104 -152 161 -211 11 -12 29 -34 40 -49 33 -47 326 -408 344 -425 9 -8 32
-39 51 -67 20 -32 41 -53 52 -53 16 0 18 11 18 130 l0 129 43 33 c24 18 163
132 311 253 147 121 283 231 301 245 42 31 59 61 51 88 -8 23 -16 23 -261 11z
m-505 -176 c0 -60 3 -220 7 -358 l6 -250 -178 220 c-99 121 -181 222 -184 225
-4 3 -26 30 -50 60 -25 30 -51 62 -58 70 -8 8 -29 36 -49 63 l-35 47 39 0 c21
0 42 4 48 10 5 5 102 11 224 13 118 1 218 3 223 5 4 1 7 -46 7 -105z"/>
<path d="M4404 5205 c-10 -24 4 -33 61 -40 31 -4 58 -11 61 -16 6 -11 36 -370
31 -376 -2 -2 -42 -16 -88 -32 -82 -27 -111 -53 -76 -67 14 -5 798 241 864
271 17 8 38 15 46 15 9 0 19 5 22 10 3 6 16 10 29 10 12 0 26 3 30 8 4 4 24
12 44 17 37 11 49 29 34 53 -5 7 -44 16 -93 22 -46 5 -109 14 -139 19 -56 11
-795 121 -812 121 -5 0 -11 -7 -14 -15z m436 -95 c41 -5 100 -14 130 -19 30
-6 75 -13 100 -16 84 -9 268 -40 274 -45 3 -4 -159 -59 -361 -123 -201 -65
-368 -116 -370 -113 -4 3 -31 291 -33 347 0 3 42 0 93 -8 50 -8 126 -18 167
-23z"/>
<path d="M4830 4654 c-304 -9 -462 -18 -477 -26 -49 -25 -32 -46 235 -290 141
-130 277 -254 301 -277 24 -23 53 -41 63 -41 16 0 18 9 18 69 0 66 2 71 33 97
46 38 211 188 282 257 33 31 85 81 116 110 58 55 85 92 71 101 -22 13 -225 13
-642 0z m570 -38 c0 -6 -400 -369 -417 -380 -10 -6 -13 34 -13 183 l0 190 158
4 c86 1 183 4 215 5 31 1 57 0 57 -2z m-480 -261 c0 -242 0 -247 -19 -234 -50
36 -508 465 -501 469 5 3 123 7 264 9 l256 4 0 -248z"/>
<path d="M2715 4610 c-14 -22 10 -39 66 -45 32 -4 59 -8 60 -8 6 -11 36 -374
31 -378 -4 -4 -37 -16 -74 -28 -72 -24 -98 -45 -80 -63 7 -7 134 31 439 132
235 79 433 145 438 149 6 3 19 7 29 8 11 2 27 10 35 17 9 7 32 16 51 19 19 3
47 10 62 16 25 9 26 13 17 41 -6 16 -14 32 -18 34 -4 3 -200 25 -436 51 -237
25 -437 48 -445 52 -24 9 -170 12 -175 3z m362 -75 c26 -2 84 -9 128 -14 44
-6 108 -10 142 -9 33 1 67 -3 75 -9 7 -6 75 -17 151 -24 75 -7 134 -16 130
-19 -15 -13 -766 -260 -772 -254 -3 3 -13 82 -21 176 l-16 170 67 -7 c37 -4
89 -8 116 -10z"/>
<path d="M1379 4165 c-186 -129 -370 -235 -408 -235 -18 0 -49 -45 -39 -56 13
-12 148 39 228 86 47 28 164 106 260 173 125 88 176 129 178 145 2 14 -2 22
-11 22 -7 0 -101 -61 -208 -135z"/>
<path d="M216 4254 c-7 -19 17 -42 133 -122 215 -150 332 -218 358 -208 7 3
15 1 18 -5 4 -5 11 -6 17 -3 15 10 -40 54 -129 102 -43 23 -144 90 -225 147
-81 58 -151 105 -157 105 -5 0 -12 -7 -15 -16z"/>
<path d="M3201 4079 c-418 -17 -487 -22 -503 -36 -10 -9 -18 -21 -18 -28 0 -7
130 -135 289 -285 159 -151 292 -282 295 -293 3 -12 11 -17 23 -15 15 3 19 16
23 95 l5 92 260 217 c156 129 261 224 263 236 7 43 29 42 -637 17z m546 -45
c-6 -6 -53 -45 -103 -86 -50 -42 -101 -85 -115 -97 -13 -11 -68 -57 -121 -101
l-98 -81 0 181 0 180 48 1 c26 0 56 4 67 9 32 13 337 8 322 -6z m-487 -255 l0
-250 -34 28 c-56 48 -475 448 -471 451 3 3 312 17 443 20 l62 2 0 -251z"/>
<path d="M800 3911 c0 -12 6 -21 15 -21 8 0 15 4 15 9 0 5 -7 14 -15 21 -13
10 -15 9 -15 -9z"/>
<path d="M4877 3803 c-4 -3 -7 -35 -7 -69 l0 -63 -52 -3 c-40 -2 -54 -7 -56
-20 -3 -14 6 -17 45 -20 l48 -3 3 -70 c3 -76 12 -95 36 -76 10 8 16 35 18 78
l3 65 47 2 c46 2 79 18 65 32 -4 4 -29 9 -57 12 l-50 5 0 46 c0 76 -18 110
-43 84z"/>
<path d="M710 3722 c0 -20 13 -40 48 -73 90 -87 106 -107 95 -121 -16 -20 -24
-66 -13 -73 5 -3 10 2 10 11 0 10 3 14 7 11 3 -4 15 1 25 10 18 16 23 13 112
-76 89 -89 116 -103 116 -63 0 9 -39 55 -86 103 l-85 86 85 83 c59 58 86 91
86 107 0 13 -5 23 -11 23 -6 0 -49 -38 -97 -85 -47 -47 -91 -85 -97 -85 -6 0
-50 38 -98 85 -48 47 -89 85 -92 85 -3 0 -5 -13 -5 -28z"/>
<path d="M811 3451 c-1 -24 2 -32 9 -25 7 7 7 19 1 35 -9 23 -10 22 -10 -10z"/>
<path d="M787 3426 c-4 -10 -5 -21 -2 -24 9 -9 17 6 13 25 -3 17 -4 17 -11 -1z"/>
<path d="M5346 3203 c-4 -5 -114 -9 -244 -9 -248 -2 -707 -20 -779 -30 -36 -6
-43 -10 -43 -29 0 -15 98 -145 281 -371 155 -192 284 -355 286 -361 6 -15 29
-17 38 -3 3 5 8 38 10 72 18 270 19 278 36 278 5 0 52 30 104 68 52 37 134 94
181 126 47 33 96 69 109 80 78 69 105 91 114 91 18 0 81 60 81 77 0 16 -11 18
-83 18 -46 0 -87 -3 -91 -7z m72 -55 c-9 -7 -40 -30 -70 -51 -29 -20 -136 -96
-237 -167 -101 -72 -185 -129 -187 -127 -4 4 15 281 22 315 4 19 11 22 57 23
28 1 63 4 76 7 13 4 99 8 190 10 135 2 163 0 149 -10z m-522 -40 c-3 -18 -15
-165 -27 -326 -13 -161 -26 -289 -29 -285 -4 5 -118 146 -254 316 l-247 307
48 1 c26 1 98 5 158 9 61 3 165 7 233 8 l123 2 -5 -32z"/>
<path d="M2897 3184 c-9 -9 -9 -396 -1 -418 3 -9 15 -16 25 -16 19 0 19 9 17
217 -3 187 -5 218 -18 221 -9 1 -19 0 -23 -4z"/>
<path d="M3247 3164 c-4 -4 -7 -56 -7 -115 l0 -108 -92 -3 c-85 -3 -93 -5 -93
-23 0 -18 8 -20 92 -23 l92 -3 3 -112 c3 -104 4 -112 23 -112 19 0 20 8 23
117 l3 117 92 3 c84 3 92 5 92 23 0 18 -8 20 -92 23 l-92 3 -3 107 c-2 87 -6
107 -18 110 -9 1 -19 0 -23 -4z"/>
<path d="M3564 3129 c-7 -12 4 -352 12 -381 7 -25 31 -22 39 3 7 22 -3 341
-11 372 -6 19 -29 23 -40 6z"/>
<path d="M993 3097 c2 -7 11 -12 19 -12 8 0 22 -6 30 -12 8 -7 54 -29 103 -48
49 -20 164 -72 257 -116 92 -44 172 -77 178 -74 15 9 12 26 -7 42 -27 20 -253
128 -378 180 -110 45 -211 65 -202 40z"/>
<path d="M2806 3093 c-2 -10 -7 -74 -11 -143 -6 -127 0 -158 28 -147 11 4 16
36 21 139 7 136 4 168 -19 168 -8 0 -16 -8 -19 -17z"/>
<path d="M711 3086 c-8 -10 -9 -16 -1 -21 5 -3 13 1 16 10 9 22 -1 29 -15 11z"/>
<path d="M3655 3080 c-10 -16 4 -293 16 -311 7 -12 11 -11 25 3 15 15 16 32 8
165 -8 125 -12 148 -26 151 -9 2 -19 -2 -23 -8z"/>
<path d="M576 3035 c-20 -14 -39 -25 -42 -25 -7 0 -244 -160 -244 -164 0 -13
13 -36 21 -36 5 0 55 31 111 68 57 38 129 85 161 106 38 24 57 42 55 53 -5 26
-22 25 -62 -2z"/>
<path d="M2717 3008 c-3 -13 -9 -50 -12 -83 -6 -47 -4 -63 8 -73 24 -20 36 7
39 93 3 67 0 80 -13 83 -11 2 -19 -6 -22 -20z"/>
<path d="M3745 3020 c-7 -12 1 -159 11 -192 8 -25 33 -22 39 5 3 12 2 60 -2
107 -6 67 -11 85 -25 88 -9 2 -19 -2 -23 -8z"/>
<path d="M2636 2964 c-3 -9 -6 -31 -6 -51 0 -30 3 -34 23 -31 26 4 35 44 17
78 -13 24 -26 26 -34 4z"/>
<path d="M3827 2963 c-4 -3 -7 -24 -7 -45 0 -31 4 -38 19 -38 13 0 20 9 24 33
2 17 2 38 0 45 -6 13 -25 16 -36 5z"/>
<path d="M5700 2777 c0 -13 14 -44 30 -70 17 -26 30 -53 30 -60 0 -7 -19 -34
-42 -61 l-41 -48 -19 33 c-10 19 -38 66 -62 104 -39 61 -48 70 -72 68 -15 -1
-31 -7 -34 -14 -10 -16 -23 -186 -15 -199 3 -5 15 -10 26 -10 16 0 19 7 19 43
0 23 3 59 6 80 l7 38 61 -93 c36 -55 69 -94 80 -97 21 -3 94 69 122 122 18 33
14 50 -33 128 -35 61 -63 77 -63 36z"/>
<path d="M280 2656 c0 -11 9 -16 28 -16 16 0 32 -3 36 -7 4 -5 24 -8 44 -8
l37 0 9 -244 c9 -266 5 -296 -39 -285 -13 3 -28 -1 -38 -10 -8 -9 -27 -16 -42
-16 -22 0 -26 -4 -23 -22 2 -16 9 -22 23 -20 37 5 95 25 95 34 0 4 10 8 23 8
12 0 34 6 48 14 14 7 38 16 54 20 16 4 45 14 64 23 20 9 41 17 48 19 34 7 430
159 443 170 8 7 26 14 40 16 14 2 30 6 35 10 6 3 39 16 74 28 35 11 78 32 95
44 46 35 115 66 122 54 8 -12 64 0 85 18 8 8 21 14 27 14 7 0 12 6 12 14 0 16
-30 26 -85 26 -23 0 -45 4 -51 10 -5 5 -45 12 -89 14 -44 3 -154 14 -245 25
-190 24 -330 33 -330 22 0 -4 6 -15 13 -24 9 -12 33 -18 92 -21 44 -3 89 -7
100 -11 11 -3 72 -10 135 -15 182 -15 320 -32 320 -40 0 -4 -25 -15 -55 -25
-30 -11 -55 -23 -55 -27 0 -4 -8 -8 -18 -8 -14 0 -535 -191 -657 -241 -54 -22
-159 -58 -161 -56 -1 1 -4 108 -6 237 -3 230 -3 235 17 231 40 -7 210 -18 218
-14 4 2 2 13 -3 24 -9 16 -22 19 -80 19 -38 0 -80 4 -94 9 -13 6 -79 13 -145
16 -105 5 -121 4 -121 -9z"/>
<path d="M3060 2389 c-483 -24 -489 -24 -497 -32 -11 -12 20 -63 79 -129 31
-35 132 -151 224 -258 93 -107 205 -238 251 -290 45 -52 83 -101 83 -107 0
-22 27 -14 34 10 3 12 6 54 6 92 l0 71 61 69 c33 39 86 99 117 134 32 35 60
69 64 76 4 6 24 30 45 52 44 46 79 85 148 167 28 33 62 73 78 90 15 17 27 41
27 53 l0 23 -172 -1 c-95 -1 -342 -10 -548 -20z m518 -181 c-78 -90 -182 -209
-232 -265 -49 -57 -92 -103 -94 -103 -7 0 7 503 14 509 3 3 92 8 197 11 106 3
207 7 225 8 32 2 29 -2 -110 -160z m-374 -130 c-4 -150 -9 -302 -13 -337 l-6
-63 -276 318 c-152 176 -272 320 -268 322 5 2 131 9 281 16 150 7 276 14 281
15 4 0 4 -122 1 -271z"/>
<path d="M3776 2148 c-8 -30 -8 -242 0 -262 8 -21 30 -21 38 0 3 9 6 41 6 72
1 55 1 56 15 32 8 -14 22 -46 30 -72 23 -66 49 -65 104 3 41 52 51 90 32 127
-5 9 -13 28 -18 42 -23 57 -37 80 -50 80 -20 0 -16 -50 11 -115 l24 -59 -26
-35 -27 -34 -23 54 c-69 156 -86 189 -97 189 -7 0 -15 -10 -19 -22z"/>
<path d="M825 1910 c-4 -7 -4 -42 -1 -80 l7 -68 -78 -8 c-68 -8 -78 -11 -78
-29 0 -15 6 -19 25 -17 67 6 119 6 126 -1 4 -4 9 -32 12 -63 3 -36 10 -58 19
-61 24 -10 34 19 28 80 l-6 57 54 0 c43 0 109 13 125 25 1 1 0 10 -4 19 -7 18
-39 22 -49 6 -6 -10 -110 -8 -121 2 -3 3 -9 37 -12 74 -5 53 -11 70 -24 72 -9
2 -19 -2 -23 -8z"/>
<path d="M1386 1361 c-85 -13 -30 -53 60 -44 l49 5 -20 -20 c-11 -11 -137
-120 -280 -243 l-260 -222 -6 79 c-4 43 -10 148 -14 232 l-6 152 121 0 c100 0
122 3 127 16 14 37 -6 38 -349 24 -656 -26 -612 -23 -616 -43 -4 -17 66 -97
85 -97 6 0 37 -28 69 -62 33 -35 167 -163 299 -286 197 -183 244 -222 265
-220 24 3 25 6 25 73 -1 56 3 73 17 83 10 8 116 98 236 200 120 103 252 216
295 252 74 62 97 96 82 119 -7 12 -112 13 -179 2z m-531 -73 c5 -14 35 -581
31 -585 -3 -3 -417 376 -537 491 l-76 73 75 7 c41 3 116 6 166 7 50 0 109 4
131 8 66 14 205 13 210 -1z"/>
<path d="M210 558 c0 -18 42 -42 235 -137 94 -46 182 -89 197 -97 14 -8 35
-14 45 -14 10 0 23 -4 29 -9 11 -10 139 -31 193 -31 40 0 118 15 156 31 11 4
35 11 54 15 19 3 50 15 68 25 19 11 38 19 44 19 6 0 40 14 76 30 35 17 68 30
73 30 5 0 10 3 12 8 5 12 68 42 88 42 10 0 22 4 25 10 3 5 22 17 41 26 36 17
41 40 8 38 -11 -1 -82 -29 -159 -64 -169 -75 -359 -150 -384 -150 -10 0 -21
-3 -25 -7 -4 -4 -41 -7 -84 -8 -117 -1 -188 23 -471 164 -179 89 -221 104
-221 79z"/>
</g>
</svg>
